<svg width="20" height="10" viewBox="0 0 20 10" fill="none" xmlns="http://www.w3.org/2000/svg">
<path d="M19.2857 4.82366C19.2857 4.72321 19.2411 4.63393 19.1741 4.56696L14.8884 0.660713C14.7768 0.571428 14.6317 0.549106 14.4978 0.60491C14.3638 0.660713 14.2857 0.783481 14.2857 0.928571V3.42857H0.357143C0.15625 3.42857 0 3.58482 0 3.78571V5.92857C0 6.12946 0.15625 6.28571 0.357143 6.28571H14.2857V8.78571C14.2857 8.9308 14.375 9.05357 14.4978 9.10938C14.6317 9.16518 14.7768 9.14286 14.8884 9.04241L19.1741 5.09152C19.2411 5.02455 19.2857 4.92411 19.2857 4.82366Z" fill="#B4B5B4"/>
</svg>
