<svg width="23" height="32" viewBox="0 0 23 32" fill="none" xmlns="http://www.w3.org/2000/svg">
<path d="M21.1417 10C20.8192 6.54688 17.8404 5.38951 14.0837 5.06696V0.285713H11.1618V4.93415C10.4029 4.93415 9.625 4.95312 8.8471 4.9721V0.285713H5.92522V5.06696C5.29911 5.08594 4.67299 5.08594 4.08482 5.08594L0.0625 5.06696V8.17857C2.20647 8.14062 2.16853 8.17857 2.16853 8.17857C3.36384 8.17857 3.7433 8.86161 3.85714 9.46875V14.9141C3.93304 14.9141 4.04688 14.9141 4.16071 14.933C4.06585 14.933 3.95201 14.933 3.85714 14.933V22.5603C3.80022 22.9397 3.57254 23.5279 2.7567 23.5279C2.7567 23.5279 2.79464 23.5658 0.65067 23.5279L0.0625 27H3.85714C4.55915 27 5.24219 27.019 5.92522 27.019V31.8571H8.8471V27.0759C9.64397 27.0949 10.4219 27.0949 11.1618 27.0949V31.8571H14.0837V27.019C18.9788 26.7533 22.394 25.5201 22.8304 20.9096C23.1719 17.2098 21.4263 15.5592 18.6562 14.8951C20.3259 14.0413 21.3884 12.5234 21.1417 10ZM17.0625 20.3404C17.0625 23.9643 10.8772 23.5469 8.90402 23.5469V17.1339C10.8772 17.1339 17.0625 16.5837 17.0625 20.3404ZM15.7154 11.3092C15.7154 14.5915 10.5547 14.2121 8.90402 14.2121V8.38728C10.5547 8.38728 15.7154 7.875 15.7154 11.3092Z" fill="#13B709"/>
</svg>
