<svg width="22" height="29" viewBox="0 0 22 29" fill="none" xmlns="http://www.w3.org/2000/svg">
<path d="M19.5368 9C19.2522 5.95312 16.6239 4.93192 13.3092 4.64732V0.42857H10.731V4.53013C10.0614 4.53013 9.375 4.54688 8.68862 4.56362V0.42857H6.11049V4.64732C5.55804 4.66406 5.00558 4.66406 4.48661 4.66406L0.9375 4.64732V7.39286C2.82924 7.35938 2.79576 7.39286 2.79576 7.39286C3.85045 7.39286 4.18527 7.99553 4.28571 8.53125V13.3359C4.35268 13.3359 4.45312 13.3359 4.55357 13.3527C4.46987 13.3527 4.36942 13.3527 4.28571 13.3527V20.0826C4.23549 20.4174 4.0346 20.9364 3.31473 20.9364C3.31473 20.9364 3.34821 20.9699 1.45647 20.9364L0.9375 24H4.28571C4.90513 24 5.50781 24.0167 6.11049 24.0167V28.2857H8.68862V24.067C9.39174 24.0837 10.0781 24.0837 10.731 24.0837V28.2857H13.3092V24.0167C17.6283 23.7824 20.6417 22.6942 21.0268 18.6261C21.3281 15.3616 19.7879 13.9051 17.3438 13.3192C18.817 12.5658 19.7545 11.2266 19.5368 9ZM15.9375 18.1239C15.9375 21.3214 10.4799 20.9531 8.73884 20.9531V15.2946C10.4799 15.2946 15.9375 14.8092 15.9375 18.1239ZM14.7489 10.1551C14.7489 13.0513 10.1953 12.7165 8.73884 12.7165V7.57701C10.1953 7.57701 14.7489 7.125 14.7489 10.1551Z" fill="#B4B5B4"/>
</svg>
