<svg width="16" height="28" viewBox="0 0 16 28" fill="none" xmlns="http://www.w3.org/2000/svg">
<path d="M15.2813 18.5156C15.2813 14.75 12.0313 13.4844 9.15625 12.375C6.9375 11.5156 5.03125 10.7812 5.03125 9.125C5.03125 7.70312 6.40625 6.71875 8.39063 6.71875C10.7344 6.71875 12.625 8.39062 12.6406 8.40625C12.7656 8.5 12.9063 8.54687 13.0625 8.51562C13.2188 8.5 13.3438 8.40625 13.4219 8.26562L14.6875 5.98437C14.7969 5.79687 14.7656 5.5625 14.6094 5.39062C14.5469 5.32812 12.8594 3.60937 9.6875 3.25V0.5C9.6875 0.21875 9.46875 -1.90735e-06 9.1875 -1.90735e-06H7.07813C6.8125 -1.90735e-06 6.57813 0.21875 6.57813 0.5V3.3125C3.3125 3.9375 1.0625 6.3125 1.0625 9.1875C1.0625 13.1094 4.5625 14.5156 7.375 15.625C9.48438 16.4687 11.3281 17.2031 11.3281 18.7031C11.3281 20.4687 9.67188 21.2812 8.14063 21.2812C5.375 21.2812 3.1875 19.1875 3.15625 19.1719C3.0625 19.0625 2.92188 19.0156 2.78125 19.0312C2.64063 19.0469 2.5 19.1094 2.42188 19.2187L0.8125 21.3281C0.671875 21.5156 0.6875 21.7812 0.84375 21.9687C0.921875 22.0625 2.92188 24.25 6.57813 24.7656V27.5C6.57813 27.7813 6.8125 28 7.07813 28H9.1875C9.46875 28 9.6875 27.7813 9.6875 27.5V24.7656C13 24.2188 15.2813 21.7031 15.2813 18.5156Z" fill="#B4B5B4"/>
</svg>
