<svg width="23" height="23" viewBox="0 0 23 23" fill="none" xmlns="http://www.w3.org/2000/svg">
<path d="M22.2857 9.09375C22.2857 8.69196 21.8571 8.53125 21.5357 8.47768L14.8125 7.5L11.7991 1.40625C11.6786 1.15178 11.4509 0.857142 11.1429 0.857142C10.8348 0.857142 10.6071 1.15178 10.4866 1.40625L7.47321 7.5L0.75 8.47768C0.415179 8.53125 0 8.69196 0 9.09375C0 9.33482 0.174107 9.5625 0.334821 9.73661L5.20982 14.4777L4.05804 21.1741C4.04464 21.2679 4.03125 21.3482 4.03125 21.442C4.03125 21.7902 4.20536 22.1116 4.59375 22.1116C4.78125 22.1116 4.95536 22.0446 5.12946 21.9509L11.1429 18.7902L17.1563 21.9509C17.317 22.0446 17.5045 22.1116 17.692 22.1116C18.0804 22.1116 18.2411 21.7902 18.2411 21.442C18.2411 21.3482 18.2411 21.2679 18.2277 21.1741L17.0759 14.4777L21.9375 9.73661C22.1116 9.5625 22.2857 9.33482 22.2857 9.09375Z" fill="#FFB602"/>
</svg>
