<svg width="13" height="15" viewBox="0 0 13 15" fill="none" xmlns="http://www.w3.org/2000/svg">
<path d="M12.5714 11.8304C12.5714 9.8125 12.0982 6.71429 9.48214 6.71429C9.20536 6.71429 8.03572 7.95536 6.28571 7.95536C4.53571 7.95536 3.36607 6.71429 3.08929 6.71429C0.473214 6.71429 0 9.8125 0 11.8304C0 13.2768 0.964286 14.1429 2.38393 14.1429H10.1875C11.6071 14.1429 12.5714 13.2768 12.5714 11.8304ZM9.71429 3.85714C9.71429 1.96428 8.17857 0.428571 6.28571 0.428571C4.39286 0.428571 2.85714 1.96428 2.85714 3.85714C2.85714 5.75 4.39286 7.28571 6.28571 7.28571C8.17857 7.28571 9.71429 5.75 9.71429 3.85714Z" fill="black"/>
</svg>
